<?xml version="1.0" encoding="UTF-8" standalone="no"?>
<svg xmlns="http://www.w3.org/2000/svg" id="coding-gym" width="303" height="245" version="1.1" viewBox="0 0 984 792">
  <g id="g10" transform="matrix(1.3333333,0,0,-1.3333333,-361.33319,1043.1797)">
    <g id="g12">
      <g id="g14" style="fill-opacity:1;fill-rule:nonzero;stroke:none">
        <g id="g20" transform="translate(467.6424,741.921)">
          <path id="path22" d="m 0,0 v -188.205 h 35.234 v -39.962 h -57.149 c -6.303,0 -11.601,1.935 -15.897,5.802 -4.297,3.867 -6.445,8.668 -6.445,14.396 v 89.804 h -43.83 v 48.555 h 43.83 v 89.806 c 0,5.439 2.148,10.097 6.445,13.964 4.296,3.867 9.594,5.801 15.897,5.801 H 35.234 V 0 Z" style="fill:#47c1c7"/>
        </g>
        <g id="g24" transform="translate(359.0869,707.2561)">
          <path id="path26" d="m 0,0 v -118.875 h 35.234 v -39.962 h -57.149 c -6.303,0 -11.601,1.935 -15.897,5.802 -4.297,3.867 -6.445,8.668 -6.445,14.395 v 55.14 h -43.83 v 48.555 h 43.83 v 55.141 c 0,5.439 2.148,10.097 6.445,13.964 4.296,3.867 9.594,5.801 15.897,5.801 H 35.234 V 0 Z" style="fill:#101010"/>
        </g>
        <g id="g28" transform="translate(777.1231,741.921)">
          <path id="path30" d="m 0,0 v 39.961 h 57.149 c 6.303,0 11.601,-1.934 15.898,-5.801 4.297,-3.867 6.445,-8.525 6.445,-13.964 V -69.61 h 43.829 v -48.555 H 79.492 v -89.804 c 0,-5.728 -2.148,-10.529 -6.445,-14.396 -4.297,-3.867 -9.595,-5.802 -15.898,-5.802 H 0 v 39.962 H 35.234 V 0 Z" style="fill:#47c1c7"/>
        </g>
        <g id="g32" transform="translate(885.6786,707.2561)">
          <path id="path34" d="m 0,0 v 39.961 h 57.149 c 6.303,0 11.601,-1.934 15.898,-5.801 4.297,-3.867 6.445,-8.525 6.445,-13.964 v -55.141 h 43.829 V -83.5 H 79.492 v -55.14 c 0,-5.727 -2.148,-10.528 -6.445,-14.395 -4.297,-3.867 -9.595,-5.802 -15.898,-5.802 H 0 v 39.962 H 35.234 V 0 Z" style="fill:#101010"/>
        </g>
        <path id="path36" d="M 791,623.54 H 489 v 48.556 h 302 z" style="fill:#101010"/>
        <g id="g38" transform="translate(508.0118,276.107)">
          <path id="path40" d="M 0,0 V 17.052 H -44.75 V -59.671 H 0 v 16.745 h -19.176 v 28.311 h 50.23 V -42.926 -73.68 c 0,-4.064 -1.518,-7.461 -4.561,-10.197 -3.049,-2.743 -6.698,-4.112 -10.959,-4.112 h -75.811 c -4.265,0 -7.917,1.369 -10.963,4.112 -3.043,2.736 -4.567,6.133 -4.567,10.197 V 31.054 c 0,4.057 1.524,7.461 4.567,10.197 3.046,2.743 6.698,4.112 10.963,4.112 h 75.811 c 4.261,0 7.91,-1.369 10.959,-4.112 3.043,-2.736 4.561,-6.14 4.561,-10.197 V 0 Z" style="fill:#47c1c7"/>
        </g>
        <g id="g42" transform="translate(637.7145,249.0079)">
          <path id="path44" d="M 0,0 V -60.89 H -31.367 V 0 l -49.924,72.155 h 42.926 L -15.534,39.583 6.998,72.155 h 42.925 z" style="fill:#47c1c7"/>
        </g>
        <g id="g46" transform="translate(847.7957,321.1633)">
          <path id="path48" d="M 0,0 V -133.045 H -31.068 V -28.923 L -60.896,-84.64 h -20.095 l -29.842,55.717 0.313,-104.122 h -31.367 V 0 h 48.412 L -70.944,-34.403 -48.412,0 Z" style="fill:#47c1c7"/>
        </g>
        <g id="g50" transform="translate(340.613,438.7706)">
          <path id="path52" d="m 0,0 v 16.867 h -38.331 v -76.97 H 0 v 16.867 h 31.587 v -30.978 c 0,-4.086 -1.532,-7.459 -4.6,-10.12 -3.065,-2.653 -6.853,-3.983 -11.348,-3.983 H -53.97 c -4.501,0 -8.235,1.33 -11.193,3.983 -2.969,2.661 -4.45,6.034 -4.45,10.12 V 31.279 c 0,4.086 1.481,7.514 4.45,10.278 2.958,2.756 6.692,4.134 11.193,4.134 h 69.609 c 4.495,0 8.283,-1.378 11.348,-4.134 3.068,-2.764 4.6,-6.192 4.6,-10.278 L 31.587,0 Z" style="fill:#101010"/>
        </g>
        <path id="path54" d="m 435.985,378.976 h 44.776 v 76.97 h -44.776 z m 60.721,-28.523 h -76.665 c -4.292,0 -7.974,1.331 -11.039,3.984 -3.068,2.66 -4.601,6.034 -4.601,10.12 v 105.801 c 0,3.881 1.533,7.206 4.601,9.969 3.065,2.757 6.747,4.135 11.039,4.135 h 76.665 c 4.292,0 7.974,-1.378 11.038,-4.135 3.069,-2.763 4.601,-6.088 4.601,-9.969 V 364.557 c 0,-4.086 -1.532,-7.46 -4.601,-10.12 -3.064,-2.653 -6.746,-3.984 -11.038,-3.984" style="fill:#101010"/>
        <path id="path56" d="m 715.838,350.453 h -31.587 v 134.008 h 31.587 z" style="fill:#101010"/>
        <g id="g58" transform="translate(869.4724,350.4534)">
          <path id="path60" d="M 0,0 H -27.6 L -87.704,90.772 V 0 h -31.278 v 134.008 h 45.077 l 42.321,-64.395 v 64.395 H 0 Z" style="fill:#101010"/>
        </g>
        <g id="g62" transform="translate(977.7211,439.0792)">
          <path id="path64" d="M 0,0 V 17.175 H -45.077 V -60.103 H 0 v 16.867 h -19.318 v 28.515 h 50.597 v -28.515 -30.978 c 0,-4.093 -1.533,-7.514 -4.597,-10.27 -3.069,-2.764 -6.747,-4.142 -11.043,-4.142 h -76.356 c -4.295,0 -7.974,1.378 -11.042,4.142 -3.065,2.756 -4.601,6.177 -4.601,10.27 V 31.279 c 0,4.086 1.536,7.514 4.601,10.271 3.068,2.763 6.747,4.141 11.042,4.141 h 76.356 c 4.296,0 7.974,-1.378 11.043,-4.141 3.064,-2.757 4.597,-6.185 4.597,-10.271 L 31.279,0 Z" style="fill:#101010"/>
        </g>
        <g id="g66" transform="translate(619.6077,394.7994)">
          <path id="path68" d="m 0,0 c 0,-5.28 -2.532,-9.968 -6.466,-12.986 -0.431,-0.269 -0.808,-0.538 -1.239,-0.754 -2.425,-1.563 -5.335,-2.425 -8.46,-2.425 h -27.103 v 77 h 28.558 c 2.532,0 4.903,-0.647 7.005,-1.779 0.215,-0.107 0.431,-0.215 0.646,-0.377 C -2.802,56.093 0,51.459 0,46.124 Z M -10.783,89.662 H -74.521 V -44.346 H 0 c 8.729,0 16.596,3.556 22.308,9.268 5.712,5.712 9.268,13.579 9.268,22.308 v 60.073 c 0,28.174 -20.436,42.359 -42.359,42.359" style="fill:#101010"/>
        </g>
      </g>
    </g>
  </g>
</svg>
